{
	"asset":{
		"version":"2.0",
		"generator":"Created using the official Cinema 4D glTF Exporter 1.000x290161"
	},
	"scenes":[{
		"nodes":[0]
	}],
	"nodes":[{
		"name":"BUSTE 4",
		"translation":[0.0,
		0.0,
		0.0],
		"rotation":[0.0,
		-1.2246468525851679e-16,
		0.0,
		-1.0],
		"scale":[1.0,
		1.0,
		1.0],
		"mesh":0
	}],
	"meshes":[{
		"primitives":[{
			"attributes":{
				"POSITION":1,
				"TEXCOORD_0":2
			},
			"indices":0,
			"material":0
		}]
	}],
	"accessors":[{
		"bufferView":0,
		"type":"SCALAR",
		"componentType":5123,
		"count":33210,
		"byteOffset":0,
		"min":[0],
		"max":[10608]
	},
	{
		"bufferView":1,
		"type":"VEC3",
		"componentType":5126,
		"count":10609,
		"byteOffset":0,
		"min":[-35.215667724609378,
		-31.807483673095704,
		-23.86305046081543],
		"max":[38.715667724609378,
		65.15120697021485,
		45.52682876586914]
	},
	{
		"bufferView":1,
		"type":"VEC2",
		"componentType":5126,
		"count":10609,
		"byteOffset":12,
		"min":[0.007371101528406143,
		0.006799999624490738],
		"max":[0.9936000108718872,
		0.9914335012435913]
	}],
	"bufferViews":[{
		"buffer":0,
		"byteOffset":0,
		"byteLength":66420,
		"target":34963
	},
	{
		"buffer":0,
		"byteOffset":66420,
		"byteLength":212180,
		"target":34962,
		"byteStride":20
	}],
	"buffers":[{
		"uri":"data:application/octet-stream;base64,",
		"byteLength":278600
	}],
	"materials":[{
		"pbrMetallicRoughness":{
			"baseColorFactor":[1.0,
			1.0,
			1.0,
			1.0],
			"metallicFactor":1.0,
			"roughnessFactor":1.0
		},
		"emissiveFactor":[0.0,
		0.0,
		0.0],
		"alphaMode":"OPAQUE",
		"doubleSided":true,
		"name":""
	}]
}