{
	"asset":{
		"version":"2.0",
		"generator":"Created using the official Cinema 4D glTF Exporter 1.000x290161"
	},
	"scenes":[{
		"nodes":[0]
	}],
	"nodes":[{
		"name":"4.1",
		"translation":[0.0,
		0.0,
		0.0],
		"rotation":[0.0,
		-1.0,
		0.0,
		-6.123234262925839e-17],
		"scale":[1.0,
		1.0,
		1.0],
		"mesh":0
	}],
	"meshes":[{
		"primitives":[{
			"attributes":{
				"POSITION":1,
				"TEXCOORD_0":2
			},
			"indices":0,
			"material":0
		}]
	}],
	"accessors":[{
		"min":[0],
		"bufferView":0,
		"type":"SCALAR",
		"max":[2351],
		"componentType":5123,
		"count":13422,
		"byteOffset":0
	},
	{
		"min":[-26.404048919677736,
		0.0,
		-18.71879768371582],
		"bufferView":1,
		"type":"VEC3",
		"max":[26.404048919677736,
		67.12147521972656,
		18.71879768371582],
		"componentType":5126,
		"count":2352,
		"byteOffset":0
	},
	{
		"min":[0.009200000204145909,
		0.006799999624490738],
		"bufferView":1,
		"type":"VEC2",
		"max":[0.9936000108718872,
		0.9807000160217285],
		"componentType":5126,
		"count":2352,
		"byteOffset":12
	}],
	"bufferViews":[{
		"buffer":0,
		"byteOffset":0,
		"byteLength":26844,
		"target":34963
	},
	{
		"buffer":0,
		"byteOffset":26844,
		"byteLength":47040,
		"target":34962,
		"byteStride":20
	}],
	"buffers":[{
		"uri":"data:application/octet-stream;base64,",
		"byteLength":73884
	}],
	"images":[{
		"uri":"data:image/jpeg;base64,"
	},
	{
		"uri":"data:image/jpeg;base64,"
	}],
	"samplers":[{
		"magFilter":9729,
		"minFilter":9729,
		"wrapS":10497,
		"wrapT":10497
	},
	{
		"magFilter":9729,
		"minFilter":9729,
		"wrapS":10497,
		"wrapT":10497
	}],
	"textures":[{
		"sampler":0,
		"source":0
	},
	{
		"sampler":1,
		"source":1
	}],
	"materials":[{
		"name":"4.3",
		"pbrMetallicRoughness":{
			"baseColorFactor":[1.0,
			1.0,
			1.0,
			1.0],
			"metallicFactor":0.0,
			"roughnessFactor":0.5
		},
		"normalTexture":{
			"index":0,
			"scale":1.0
		},
		"emissiveTexture":{
			"index":1
		},
		"emissiveFactor":[1.0,
		1.0,
		1.0],
		"alphaMode":"OPAQUE",
		"doubleSided":true
	}]
}