{
	"asset":{
		"version":"2.0",
		"generator":"Created using the official Cinema 4D glTF Exporter 1.000x290161"
	},
	"scenes":[{
		"nodes":[0]
	}],
	"nodes":[{
		"name":"Null",
		"translation":[-2.533266067504883,
		44.248165130615237,
		-4.445309638977051],
		"rotation":[0.0,
		-2.0191964472875097e-16,
		0.0,
		-1.0],
		"scale":[1.0,
		1.0,
		1.0],
		"children":[1,
		2,
		3]
	},
	{
		"name":"Hand_Fist_1.1",
		"translation":[2.533266067504883,
		-44.248165130615237,
		4.445309638977051],
		"rotation":[0.0,
		-5.665538686387998e-16,
		0.0,
		1.0],
		"scale":[1.0,
		1.0,
		1.0],
		"mesh":0
	},
	{
		"name":"Hand_Fist_1.1",
		"translation":[-1.268682599067688,
		-52.37364196777344,
		0.48444488644599917],
		"rotation":[-4.440892098500626e-16,
		0.0,
		0.0,
		-1.0],
		"scale":[1.0,
		1.0,
		1.0],
		"mesh":1
	},
	{
		"name":"Null",
		"translation":[-6.183207035064697,
		15.348526000976563,
		6.2359538078308109],
		"rotation":[-0.007155531086027622,
		0.01565842144191265,
		-0.030189497396349908,
		-0.9993959069252014],
		"scale":[1.0,
		1.0,
		1.0],
		"children":[4,
		5,
		6]
	},
	{
		"name":"Torus",
		"translation":[7.591378211975098,
		30.622867584228517,
		-19.381681442260743],
		"rotation":[0.47934627532958987,
		-0.09223486483097077,
		-0.046151865273714069,
		0.8715445399284363],
		"scale":[1.0,
		1.0,
		1.0],
		"mesh":2
	},
	{
		"name":"Cylinder.1",
		"translation":[-3.436410427093506,
		-13.862133026123047,
		8.773555755615235],
		"rotation":[-0.2773260474205017,
		-0.03258559852838516,
		-0.09785419702529907,
		0.9552240371704102],
		"scale":[1.0,
		1.0,
		1.0],
		"mesh":3
	},
	{
		"name":"Cylinder.1",
		"translation":[-4.154967784881592,
		-16.760732650756837,
		10.608124732971192],
		"rotation":[-0.17305763065814973,
		-0.21914061903953553,
		-0.7446388006210327,
		0.6062520742416382],
		"scale":[1.0,
		1.0,
		1.0],
		"mesh":4
	}],
	"meshes":[{
		"primitives":[{
			"attributes":{
				"POSITION":1,
				"TEXCOORD_0":2
			},
			"indices":0,
			"material":0
		}]
	},
	{
		"primitives":[{
			"attributes":{
				"POSITION":4,
				"TEXCOORD_0":5
			},
			"indices":3,
			"material":1
		}]
	},
	{
		"primitives":[{
			"attributes":{
				"POSITION":7,
				"TEXCOORD_0":8
			},
			"indices":6,
			"material":0
		}]
	},
	{
		"primitives":[{
			"attributes":{
				"POSITION":10,
				"TEXCOORD_0":11
			},
			"indices":9,
			"material":0
		}]
	},
	{
		"primitives":[{
			"attributes":{
				"POSITION":13,
				"TEXCOORD_0":14
			},
			"indices":12,
			"material":0
		}]
	}],
	"accessors":[{
		"bufferView":0,
		"type":"SCALAR",
		"componentType":5123,
		"count":21366,
		"byteOffset":0,
		"min":[0],
		"max":[8173]
	},
	{
		"bufferView":1,
		"type":"VEC3",
		"componentType":5126,
		"count":8174,
		"byteOffset":0,
		"min":[-27.990863800048829,
		-8.32547664642334,
		-22.812732696533204],
		"max":[27.986072540283204,
		87.30349731445313,
		22.808835983276368]
	},
	{
		"bufferView":1,
		"type":"VEC2",
		"componentType":5126,
		"count":8174,
		"byteOffset":12,
		"min":[0.0,
		0.0],
		"max":[1.0,
		1.0]
	},
	{
		"bufferView":2,
		"type":"SCALAR",
		"componentType":5123,
		"count":786,
		"byteOffset":0,
		"min":[0],
		"max":[243]
	},
	{
		"bufferView":3,
		"type":"VEC3",
		"componentType":5126,
		"count":244,
		"byteOffset":0,
		"min":[-23.998851776123048,
		9.662270000754519e-15,
		-18.652135848999025],
		"max":[31.60274887084961,
		95.22897338867188,
		26.57376480102539]
	},
	{
		"bufferView":3,
		"type":"VEC2",
		"componentType":5126,
		"count":244,
		"byteOffset":12,
		"min":[0.00809542741626501,
		0.008095426484942437],
		"max":[0.9919045567512512,
		0.8757270574569702]
	},
	{
		"bufferView":4,
		"type":"SCALAR",
		"componentType":5123,
		"count":6552,
		"byteOffset":0,
		"min":[0],
		"max":[1160]
	},
	{
		"bufferView":5,
		"type":"VEC3",
		"componentType":5126,
		"count":1161,
		"byteOffset":0,
		"min":[-38.42839431762695,
		-4.805249214172363,
		-38.32094192504883],
		"max":[38.42839431762695,
		4.805249214172363,
		38.32094192504883]
	},
	{
		"bufferView":5,
		"type":"VEC2",
		"componentType":5126,
		"count":1161,
		"byteOffset":12,
		"min":[0.0,
		0.0],
		"max":[1.0,
		1.0]
	},
	{
		"bufferView":6,
		"type":"SCALAR",
		"componentType":5123,
		"count":312,
		"byteOffset":0,
		"min":[0],
		"max":[107]
	},
	{
		"bufferView":7,
		"type":"VEC3",
		"componentType":5126,
		"count":108,
		"byteOffset":0,
		"min":[-4.841000080108643,
		-20.637439727783204,
		-4.805703639984131],
		"max":[4.841000080108643,
		19.712825775146486,
		4.805703639984131]
	},
	{
		"bufferView":7,
		"type":"VEC2",
		"componentType":5126,
		"count":108,
		"byteOffset":12,
		"min":[0.0,
		0.0],
		"max":[1.0,
		1.0]
	},
	{
		"bufferView":8,
		"type":"SCALAR",
		"componentType":5123,
		"count":312,
		"byteOffset":0,
		"min":[0],
		"max":[107]
	},
	{
		"bufferView":9,
		"type":"VEC3",
		"componentType":5126,
		"count":108,
		"byteOffset":0,
		"min":[-4.841000080108643,
		-17.29290199279785,
		-4.805703639984131],
		"max":[4.841000080108643,
		17.29290199279785,
		4.805703639984131]
	},
	{
		"bufferView":9,
		"type":"VEC2",
		"componentType":5126,
		"count":108,
		"byteOffset":12,
		"min":[0.0,
		0.0],
		"max":[1.0,
		1.0]
	}],
	"bufferViews":[{
		"buffer":0,
		"byteOffset":0,
		"byteLength":42732,
		"target":34963
	},
	{
		"buffer":0,
		"byteOffset":42732,
		"byteLength":163480,
		"target":34962,
		"byteStride":20
	},
	{
		"buffer":1,
		"byteOffset":0,
		"byteLength":1572,
		"target":34963
	},
	{
		"buffer":1,
		"byteOffset":1572,
		"byteLength":4880,
		"target":34962,
		"byteStride":20
	},
	{
		"buffer":2,
		"byteOffset":0,
		"byteLength":13104,
		"target":34963
	},
	{
		"buffer":2,
		"byteOffset":13104,
		"byteLength":23220,
		"target":34962,
		"byteStride":20
	},
	{
		"buffer":3,
		"byteOffset":0,
		"byteLength":624,
		"target":34963
	},
	{
		"buffer":3,
		"byteOffset":624,
		"byteLength":2160,
		"target":34962,
		"byteStride":20
	},
	{
		"buffer":4,
		"byteOffset":0,
		"byteLength":624,
		"target":34963
	},
	{
		"buffer":4,
		"byteOffset":624,
		"byteLength":2160,
		"target":34962,
		"byteStride":20
	}],
	"buffers":[{
		"uri":"data:application/octet-stream;base64,",
		"byteLength":206212
	},
	{
		"uri":"data:application/octet-stream;base64,",
		"byteLength":6452
	},
	{
		"uri":"data:application/octet-stream;base64,",
		"byteLength":36324
	},
	{
		"uri":"data:application/octet-stream;base64,",
		"byteLength":2784
	},
	{
		"uri":"data:application/octet-stream;base64,",
		"byteLength":2784
	}],
	"materials":[{
		"pbrMetallicRoughness":{
			"baseColorFactor":[0.8,
			0.8,
			0.8,
			1.0],
			"metallicFactor":1.0,
			"roughnessFactor":1.0
		},
		"emissiveFactor":[1.0,
		1.0,
		1.0],
		"alphaMode":"OPAQUE",
		"doubleSided":true,
		"name":"Mat.3"
	},
	{
		"pbrMetallicRoughness":{
			"baseColorFactor":[1.0,
			1.0,
			1.0,
			1.0],
			"metallicFactor":1.0,
			"roughnessFactor":1.0
		},
		"emissiveFactor":[0.0,
		0.0,
		0.0],
		"alphaMode":"OPAQUE",
		"doubleSided":true,
		"name":"Mat.2"
	}]
}