{
	"asset":{
		"version":"2.0",
		"generator":"Created using the official Cinema 4D glTF Exporter 1.000x290161"
	},
	"scenes":[{
		"nodes":[0]
	}],
	"nodes":[{
		"name":"Statue_3.2",
		"mesh":0
	}],
	"meshes":[{
		"primitives":[{
			"attributes":{
				"POSITION":1,
				"TEXCOORD_0":2
			},
			"indices":0,
			"material":0
		}]
	}],
	"accessors":[{
		"bufferView":0,
		"type":"SCALAR",
		"componentType":5123,
		"count":30915,
		"byteOffset":0,
		"min":[0],
		"max":[9172]
	},
	{
		"bufferView":1,
		"type":"VEC3",
		"componentType":5126,
		"count":9173,
		"byteOffset":0,
		"min":[-35.85954666137695,
		0.0,
		-35.856956481933597],
		"max":[35.85954666137695,
		253.08303833007813,
		35.856956481933597]
	},
	{
		"bufferView":1,
		"type":"VEC2",
		"componentType":5126,
		"count":9173,
		"byteOffset":12,
		"min":[0.00726273050531745,
		0.007262730039656162],
		"max":[0.9927204847335815,
		0.9927372932434082]
	}],
	"bufferViews":[{
		"buffer":0,
		"byteOffset":0,
		"byteLength":61830,
		"target":34963
	},
	{
		"buffer":0,
		"byteOffset":61832,
		"byteLength":183460,
		"target":34962,
		"byteStride":20
	}],
	"buffers":[{
		"uri":"data:application/octet-stream;base64,",
		"byteLength":245292
	}],
	"materials":[{
		"pbrMetallicRoughness":{
			"baseColorFactor":[1.0,
			1.0,
			1.0,
			1.0],
			"metallicFactor":1.0,
			"roughnessFactor":1.0
		},
		"emissiveFactor":[0.0,
		0.0,
		0.0],
		"alphaMode":"OPAQUE",
		"doubleSided":true,
		"name":""
	}]
}