{
	"asset":{
		"version":"2.0",
		"generator":"Created using the official Cinema 4D glTF Exporter 1.000x290161"
	},
	"scenes":[{
		"nodes":[0]
	}],
	"nodes":[{
		"name":"Statue_3.1",
		"translation":[0.0,
		-0.00013807415962219238,
		0.0],
		"rotation":[0.0,
		-0.7071067690849304,
		0.0,
		-0.7071067690849304],
		"scale":[1.0,
		1.0,
		1.0],
		"mesh":0
	}],
	"meshes":[{
		"primitives":[{
			"attributes":{
				"POSITION":1,
				"TEXCOORD_0":2
			},
			"indices":0,
			"material":0
		}]
	}],
	"accessors":[{
		"bufferView":0,
		"type":"SCALAR",
		"componentType":5123,
		"count":30915,
		"byteOffset":0,
		"min":[0],
		"max":[9172]
	},
	{
		"bufferView":1,
		"type":"VEC3",
		"componentType":5126,
		"count":9173,
		"byteOffset":0,
		"min":[-27.623695373535158,
		0.0,
		-27.6216983795166],
		"max":[27.623695373535158,
		194.95751953125,
		27.62169647216797]
	},
	{
		"bufferView":1,
		"type":"VEC2",
		"componentType":5126,
		"count":9173,
		"byteOffset":12,
		"min":[0.00726273050531745,
		0.007262730039656162],
		"max":[0.9927204847335815,
		0.9927372932434082]
	}],
	"bufferViews":[{
		"buffer":0,
		"byteOffset":0,
		"byteLength":61830,
		"target":34963
	},
	{
		"buffer":0,
		"byteOffset":61832,
		"byteLength":183460,
		"target":34962,
		"byteStride":20
	}],
	"buffers":[{
		"uri":"data:application/octet-stream;base64,",
		"byteLength":245292
	}],
	"images":[{
		"uri":"data:image/jpeg;base64,"
	},
	{
		"uri":"data:image/jpeg;base64,"
	}],
	"samplers":[{
		"magFilter":9729,
		"minFilter":9729,
		"wrapS":10497,
		"wrapT":10497
	},
	{
		"magFilter":9729,
		"minFilter":9729,
		"wrapS":10497,
		"wrapT":10497
	}],
	"textures":[{
		"sampler":0,
		"source":0
	},
	{
		"sampler":1,
		"source":1
	}],
	"materials":[{
		"pbrMetallicRoughness":{
			"baseColorFactor":[1.0,
			1.0,
			1.0,
			1.0],
			"metallicFactor":0.0,
			"roughnessFactor":0.5
		},
		"normalTexture":{
			"index":0,
			"scale":1.0
		},
		"emissiveTexture":{
			"index":1
		},
		"emissiveFactor":[1.0,
		1.0,
		1.0],
		"alphaMode":"OPAQUE",
		"doubleSided":true,
		"name":"Statue_3.1"
	}]
}