{
	"asset":{
		"version":"2.0",
		"generator":"Created using the official Cinema 4D glTF Exporter 1.000x290161"
	},
	"scenes":[{
		"nodes":[0]
	}],
	"nodes":[{
		"name":"MAIN",
		"translation":[0.0,
		4.880002448686728e-15,
		0.0],
		"rotation":[6.162975822039155e-33,
		-5.665538686387998e-16,
		0.0,
		1.0],
		"scale":[1.0,
		1.0,
		1.0],
		"mesh":0
	}],
	"meshes":[{
		"primitives":[{
			"attributes":{
				"POSITION":1,
				"TEXCOORD_0":2
			},
			"indices":0,
			"material":0
		}]
	}],
	"accessors":[{
		"bufferView":0,
		"type":"SCALAR",
		"componentType":5123,
		"count":4398,
		"byteOffset":0,
		"min":[0],
		"max":[1286]
	},
	{
		"bufferView":1,
		"type":"VEC3",
		"componentType":5126,
		"count":1287,
		"byteOffset":0,
		"min":[-77.07191467285156,
		-58.79311752319336,
		-74.02936553955078],
		"max":[77.07191467285156,
		58.79311752319336,
		74.02936553955078]
	},
	{
		"bufferView":1,
		"type":"VEC2",
		"componentType":5126,
		"count":1287,
		"byteOffset":12,
		"min":[0.008470834232866764,
		0.00847083330154419],
		"max":[0.9873730540275574,
		0.991529107093811]
	}],
	"bufferViews":[{
		"buffer":0,
		"byteOffset":0,
		"byteLength":8796,
		"target":34963
	},
	{
		"buffer":0,
		"byteOffset":8796,
		"byteLength":25740,
		"target":34962,
		"byteStride":20
	}],
	"buffers":[{
		"uri":"data:application/octet-stream;base64,",
		"byteLength":34536
	}],
	"materials":[{
		"pbrMetallicRoughness":{
			"baseColorFactor":[1.0,
			1.0,
			1.0,
			1.0],
			"metallicFactor":1.0,
			"roughnessFactor":1.0
		},
		"emissiveFactor":[0.0,
		0.0,
		0.0],
		"alphaMode":"OPAQUE",
		"doubleSided":true,
		"name":""
	}]
}