{
	"asset":{
		"version":"2.0",
		"generator":"Created using the official Cinema 4D glTF Exporter 1.000x290161"
	},
	"scenes":[{
		"nodes":[0]
	}],
	"nodes":[{
		"name":"MAIN.1",
		"translation":[0.0,
		139.90109252929688,
		0.0],
		"rotation":[-0.27059805393218996,
		-0.6532815098762512,
		0.27059805393218996,
		-0.6532815098762512],
		"scale":[1.0,
		1.0,
		1.0],
		"mesh":0
	}],
	"meshes":[{
		"primitives":[{
			"attributes":{
				"POSITION":1,
				"TEXCOORD_0":2
			},
			"indices":0,
			"material":0
		}]
	}],
	"accessors":[{
		"bufferView":0,
		"type":"SCALAR",
		"componentType":5123,
		"count":4398,
		"byteOffset":0,
		"min":[0],
		"max":[1286]
	},
	{
		"bufferView":1,
		"type":"VEC3",
		"componentType":5126,
		"count":1287,
		"byteOffset":0,
		"min":[-43.66157913208008,
		-33.01923751831055,
		-48.22282409667969],
		"max":[55.60394287109375,
		42.70392608642578,
		47.124019622802737]
	},
	{
		"bufferView":1,
		"type":"VEC2",
		"componentType":5126,
		"count":1287,
		"byteOffset":12,
		"min":[0.008470834232866764,
		0.00847083330154419],
		"max":[0.9873730540275574,
		0.991529107093811]
	}],
	"bufferViews":[{
		"buffer":0,
		"byteOffset":0,
		"byteLength":8796,
		"target":34963
	},
	{
		"buffer":0,
		"byteOffset":8796,
		"byteLength":25740,
		"target":34962,
		"byteStride":20
	}],
	"buffers":[{
		"uri":"data:application/octet-stream;base64,",
		"byteLength":34536
	}],
	"images":[{
		"uri":"data:image/jpeg;base64,"
	},
	{
		"uri":"data:image/jpeg;base64,"
	}],
	"samplers":[{
		"magFilter":9729,
		"minFilter":9729,
		"wrapS":10497,
		"wrapT":10497
	},
	{
		"magFilter":9729,
		"minFilter":9729,
		"wrapS":10497,
		"wrapT":10497
	}],
	"textures":[{
		"sampler":0,
		"source":0
	},
	{
		"sampler":1,
		"source":1
	}],
	"materials":[{
		"pbrMetallicRoughness":{
			"baseColorFactor":[1.0,
			1.0,
			1.0,
			1.0],
			"metallicFactor":0.0,
			"roughnessFactor":0.5
		},
		"normalTexture":{
			"index":0,
			"scale":1.0
		},
		"emissiveTexture":{
			"index":1
		},
		"emissiveFactor":[1.0,
		1.0,
		1.0],
		"alphaMode":"OPAQUE",
		"doubleSided":true,
		"name":"MAIN"
	}]
}