{
	"asset":{
		"version":"2.0",
		"generator":"Created using the official Cinema 4D glTF Exporter 1.000x290161"
	},
	"scenes":[{
		"nodes":[0]
	}],
	"nodes":[{
		"name":"1.1",
		"translation":[-0.31406140327453616,
		0.24534590542316438,
		0.0],
		"rotation":[0.0,
		0.0,
		0.0,
		-1.0],
		"scale":[1.0,
		1.0,
		1.0],
		"mesh":0
	}],
	"meshes":[{
		"primitives":[{
			"attributes":{
				"POSITION":1,
				"TEXCOORD_0":2
			},
			"indices":0,
			"material":0
		}]
	}],
	"accessors":[{
		"bufferView":0,
		"type":"SCALAR",
		"componentType":5123,
		"count":13434,
		"byteOffset":0,
		"min":[0],
		"max":[2756]
	},
	{
		"bufferView":1,
		"type":"VEC3",
		"componentType":5126,
		"count":2757,
		"byteOffset":0,
		"min":[-14.57029914855957,
		0.3238959014415741,
		-8.702566146850586],
		"max":[14.062251091003418,
		36.7323112487793,
		11.780014991760254]
	},
	{
		"bufferView":1,
		"type":"VEC2",
		"componentType":5126,
		"count":2757,
		"byteOffset":12,
		"min":[0.009150201454758644,
		0.008302444592118264],
		"max":[0.9908497929573059,
		0.9916975498199463]
	}],
	"bufferViews":[{
		"buffer":0,
		"byteOffset":0,
		"byteLength":26868,
		"target":34963
	},
	{
		"buffer":0,
		"byteOffset":26868,
		"byteLength":55140,
		"target":34962,
		"byteStride":20
	}],
	"buffers":[{
		"uri":"data:application/octet-stream;base64,",
		"byteLength":82008
	}],
	"images":[{
		"uri":"data:image/jpeg;base64,"
	}],
	"samplers":[{
		"magFilter":9729,
		"minFilter":9729,
		"wrapS":10497,
		"wrapT":10497
	}],
	"textures":[{
		"sampler":0,
		"source":0
	}],
	"materials":[{
		"pbrMetallicRoughness":{
			"baseColorTexture":{
				"index":0
			},
			"baseColorFactor":[1.0,
			1.0,
			1.0,
			1.0],
			"metallicFactor":0.0,
			"roughnessFactor":0.5
		},
		"emissiveFactor":[0.0,
		0.0,
		0.0],
		"alphaMode":"OPAQUE",
		"doubleSided":true,
		"name":"1"
	}]
}