{
	"asset":{
		"version":"2.0",
		"generator":"Created using the official Cinema 4D glTF Exporter 1.000x290161"
	},
	"scenes":[{
		"nodes":[0]
	}],
	"nodes":[{
		"name":"CHEVEUX.2",
		"translation":[-0.3813570439815521,
		20.295190811157228,
		-0.967231035232544],
		"rotation":[0.0,
		0.0,
		0.0,
		-1.0],
		"scale":[1.0,
		1.0,
		1.0],
		"mesh":0
	}],
	"meshes":[{
		"primitives":[{
			"attributes":{
				"POSITION":1,
				"TEXCOORD_0":2
			},
			"indices":0,
			"material":0
		}]
	}],
	"accessors":[{
		"bufferView":0,
		"type":"SCALAR",
		"componentType":5123,
		"count":33222,
		"min":[0],
		"byteOffset":0,
		"max":[8259]
	},
	{
		"bufferView":1,
		"type":"VEC3",
		"componentType":5126,
		"count":8260,
		"min":[-26.011703491210939,
		-20.295190811157228,
		-19.251928329467775],
		"byteOffset":0,
		"max":[26.774415969848634,
		49.25620651245117,
		30.312271118164064]
	},
	{
		"bufferView":1,
		"type":"VEC2",
		"componentType":5126,
		"count":8260,
		"min":[0.007403452415019274,
		0.0074034519493579868],
		"byteOffset":12,
		"max":[0.9925965666770935,
		0.9875713586807251]
	}],
	"bufferViews":[{
		"buffer":0,
		"byteOffset":0,
		"byteLength":66444,
		"target":34963
	},
	{
		"buffer":0,
		"byteOffset":66444,
		"byteLength":165200,
		"target":34962,
		"byteStride":20
	}],
	"buffers":[{
		"uri":"data:application/octet-stream;base64,",
		"byteLength":231644
	}],
	"images":[{
		"uri":"data:image/jpeg;base64,"
	},
	{
		"uri":"data:image/jpeg;base64,"
	}],
	"samplers":[{
		"magFilter":9729,
		"minFilter":9729,
		"wrapS":10497,
		"wrapT":10497
	},
	{
		"magFilter":9729,
		"minFilter":9729,
		"wrapS":10497,
		"wrapT":10497
	}],
	"textures":[{
		"sampler":0,
		"source":0
	},
	{
		"sampler":1,
		"source":1
	}],
	"materials":[{
		"pbrMetallicRoughness":{
			"baseColorFactor":[1.0,
			1.0,
			1.0,
			1.0],
			"metallicFactor":0.0,
			"roughnessFactor":0.5
		},
		"normalTexture":{
			"index":0,
			"scale":1.0
		},
		"emissiveTexture":{
			"index":1
		},
		"emissiveFactor":[1.0,
		1.0,
		1.0],
		"alphaMode":"OPAQUE",
		"doubleSided":true,
		"name":"CHEVEUX"
	}]
}