<svg xmlns="http://www.w3.org/2000/svg" width="361" height="361" viewBox="0 0 361 361">
  <g id="Groupe_4" data-name="Groupe 4" transform="translate(-2263 -630)">
    <circle id="Ellipse_6" data-name="Ellipse 6" cx="180.5" cy="180.5" r="180.5" transform="translate(2263 630)" fill="rgba(255,255,255,0.7)"/>
    <g id="Groupe_2" data-name="Groupe 2" transform="translate(0 6)">
      <path id="heart" d="M123.9,11.717A36.188,36.188,0,0,0,96.984,0,33.856,33.856,0,0,0,75.838,7.3a43.262,43.262,0,0,0-8.549,8.927A43.239,43.239,0,0,0,58.74,7.3,33.851,33.851,0,0,0,37.595,0,36.19,36.19,0,0,0,10.675,11.717C3.792,19.185,0,29.387,0,40.445c0,11.382,4.242,21.8,13.348,32.788C21.494,83.062,33.2,93.04,46.76,104.594c4.63,3.946,9.877,8.418,15.326,13.182a7.9,7.9,0,0,0,10.4,0c5.449-4.765,10.7-9.24,15.331-13.188,13.556-11.552,25.264-21.529,33.411-31.359,9.106-10.987,13.347-21.406,13.347-32.788C134.579,29.387,130.787,19.185,123.9,11.717Zm0,0" transform="translate(2465.659 670.268) rotate(30)" fill="rgba(255,255,255,0.7)"/>
      <path id="heart-2" data-name="heart" d="M123.9,11.717A36.188,36.188,0,0,0,96.984,0,33.856,33.856,0,0,0,75.838,7.3a43.262,43.262,0,0,0-8.549,8.927A43.239,43.239,0,0,0,58.74,7.3,33.851,33.851,0,0,0,37.595,0,36.19,36.19,0,0,0,10.675,11.717C3.792,19.185,0,29.387,0,40.445c0,11.382,4.242,21.8,13.348,32.788C21.494,83.062,33.2,93.04,46.76,104.594c4.63,3.946,9.877,8.418,15.326,13.182a7.9,7.9,0,0,0,10.4,0c5.449-4.765,10.7-9.24,15.331-13.188,13.556-11.552,25.264-21.529,33.411-31.359,9.106-10.987,13.347-21.406,13.347-32.788C134.579,29.387,130.787,19.185,123.9,11.717Zm0,0" transform="translate(2295.793 833.557) rotate(-30)" fill="rgba(255,255,255,0.7)"/>
    </g>
  </g>
</svg>
