<svg xmlns="http://www.w3.org/2000/svg" viewBox="0 0 497.59 863.06"><title>logo_blanc</title><g id="Calque_2" data-name="Calque 2"><g id="Calque_1-2" data-name="Calque 1"><path d="M497.15,203.26c-.2-2.2-.4-4.4-.4-6.6a112,112,0,0,0-3.4-25.8c-.7-2.7-1.4-5.4-2-8-2-8.3-4.1-17-8.2-24.8-.6-1.2-1.1-2.5-1.7-3.7a8.86,8.86,0,0,0-.8-1.7c-.7-1.6-1.4-3.4-2.1-5a64.72,64.72,0,0,0-5.1-10.6c-1.5-2.4-3.1-4.8-4.5-7.2-6.8-10.8-13.7-21.9-23.3-30.8-.2-.2-.3-.4-.5-.6s-.2-.3-.3-.4c-1.3-1.4-2.6-2.8-3.8-4.2a91.39,91.39,0,0,0-8.7-8.9c-7.1-6.1-14.6-11.9-21.9-17.6l-3.1-2.4a115.21,115.21,0,0,0-13.7-8.5c-1.9-1-3.9-2.1-5.8-3.2l-3.6-2.1a99,99,0,0,0-12-6.4l-1.8-.7c-4.7-1.9-9.5-3.8-14.3-5.6l-5.1-2.1a98.1,98.1,0,0,0-12.2-4.4c-1.8-.4-3.5-.9-5.3-1.3-2.4-.6-4.9-1.2-7.4-1.8s-5.1-1.2-7.5-1.9a118.52,118.52,0,0,0-14.6-3.2c-4.7-.6-10.1-1.2-15.5-1.8-2.2-.2-4.4-.5-6.5-.7-6.9-.8-14.1-1.6-21.2-1.1-2.8.2-6,.4-9.3.4a174.25,174.25,0,0,0-29.8,2c-3.3.6-6.7,1.1-10,1.6-8.4,1.3-17.1,2.6-25.5,5.2-3.3,1-6.6,2-9.9,2.9-8.6,2.4-17.4,4.9-25.7,8.8-2.8,1.3-5.8,2.5-8.7,3.6a89.19,89.19,0,0,0-12.2,5.5c-1.8,1-3.7,2.1-5.5,3.1-13.3,7.5-27,15.2-38.7,25.4-1.9,1.7-3.9,3.2-5.9,4.7a66.26,66.26,0,0,0-8.1,6.8c-2,2-4,4.1-6,6.1-9.3,9.4-18.9,19.1-26,30.8a1.38,1.38,0,0,1-.3.4c-.1.1-.1.2-.2.3-6.9,9.7-14,19.7-18.6,31-1.4,3.3-3,6.5-4.6,9.6-.4.7-.7,1.4-1.1,2.2a42.49,42.49,0,0,0-3.3,8.6c-.6,2.3-1.3,4.5-1.9,6.7-.7,2.5-1.5,5-2.2,7.6-.3,1.1-.6,2.2-1,3.3-1.5,5-3,10.1-3.4,15.5-.2,2.7-.6,5.4-.9,8-.3,2.3-.6,4.7-.8,7.1-.1,1.4-.3,2.8-.4,4.1-.6,5.5-1.2,11.2-.6,16.8.4,4.1.7,8.3.8,13a96.22,96.22,0,0,0,2.5,19.2c3.1,13.3,6.6,28.3,13.5,41.9,1.3,2.5,2.3,5,3.4,7.5.6,1.3,1.1,2.7,1.7,4.1a21.1,21.1,0,0,0,1.6,3.4c2,3,4,6.1,5.9,9,6.7,10.4,13.6,21.1,22.9,29.8a10.7,10.7,0,0,1,1.4,1.6,122.14,122.14,0,0,0,19.9,18.8q3.45,2.55,6.9,5.4a1.76,1.76,0,0,1,.5.4l5.3,106.8v.1l-2.7-.3a14.38,14.38,0,0,0-6.2-.1,16.87,16.87,0,0,0-3.1,6.8,145.23,145.23,0,0,0-3.9,20.7,152.21,152.21,0,0,0-1.2,28.6,8.83,8.83,0,0,0,1.8,5.7l38.1,4.2,18.1,41.8L117.15,858a4.36,4.36,0,0,0,1.1,2.9,3.85,3.85,0,0,0,2.9,1.2h9.2c.4,0,.9.1,1.3.1h12.5l204.4.9a4,4,0,0,0,4-4l2.1-230.9,13.1-40.8,61.9-121.2a1.42,1.42,0,0,0,.2-.6l18.2-55.2a4.08,4.08,0,0,0-.4-3.4L423,366.86l1.8-1.5a25,25,0,0,0,3.4-3.1c3.2-3.7,6.6-7.2,9.2-9.9a140.56,140.56,0,0,0,20.3-24.6c.5-.7.9-1.5,1.4-2.1a164.21,164.21,0,0,0,19.2-32.6c.6-1.4,1.2-2.7,1.9-4.1,3-6.4,6-13.1,7.7-20.1.4-1.7.9-3.5,1.4-5.1.3-1.1.7-2.2,1-3.4s.7-2.5,1.1-3.8c1.4-4.8,2.9-9.8,3.1-15a41.83,41.83,0,0,1,.6-5.1c.1-.9.3-1.9.4-2.8.2-1.6.4-3.3.5-4.9.5-4.6,1.1-9.3,1.4-14A55,55,0,0,0,497.15,203.26ZM90.55,404c.1-1.2.2-2.4.3-3.5l1-10.1,9.5,4.4,10.6,7.5-21,11.8Zm260.5-156.8,3.1-.3-9.7,61.8h-1.1l-.1-.2c-3.6-11.7-7.2-23.3-10.9-35.2l-4.1-13.4,2.6-3.9Zm-16.4,3.3,1.3-2,4-.3Zm59.5,42.5c-.3,8.9-.6,17.7-1,26.5h-.5c-5.45-11.85-10.28-22.62-14.61-32.69s-8.19-19.41-11.69-28.41l-.6-1.6Zm-27.9-41,1.1-1.2,3.7,2.3,14.5,10.5,5.6,18-1.2.6-.1-.2Zm42.6,107.4c-8.4-11.1-16.7-21.9-25-32.9L391,331Zm-12.5-34.3a84,84,0,0,1,1.2-12.3l.3-1.5.2,1.5c.9,6,1.7,11.9,2.6,18.7l-3.4-5.4A4.3,4.3,0,0,0,396.35,325.06Zm8.1-9.4c-.8,2-1.7,4.2-2.4,6.3l-.3,1-3.9-28,8.3,2,2.9,4.8A68.67,68.67,0,0,1,404.45,315.66Zm-7.3-24.8-5.7-18,11.9,19.5Zm-8.7,29.1-13.6-8.6a3.53,3.53,0,0,0-1.9-.6l-24.8-1.2,3.8-24.3c1.8-11.5,3.7-23.2,5.5-35.1l.1-.8.3.8C368.35,273.86,378.35,297,388.45,320ZM269.75,621l1,.2v.2c.6,7.2,1.2,13.9,1.9,20.5.3,3.4.6,6.8.9,10.1.4,4.7.9,9.5,1.3,14.2.3,3.1.5,6.2.8,9.3s.5,6.4.8,9.6a11.58,11.58,0,0,1-.7,4.2c-8.5,30.6-17,61-25.2,90.4l-1.4,5c-3,10.6-6.1,21.5-9.3,32.2l-.5-.1c3.5-24.2,7.3-48.8,11.1-72.6,1.3-8.4,2.6-16.9,4-25.3,3.3-21.6,6.8-43.5,10.2-64.7,1.8-11,3.5-22,5.2-33.1Zm-114-276.2c3.8,13.4,7.6,26.9,11.4,40.6l-.1,4.1c-4.2-1.7-8-3.5-11.5-5.3-1.5-.7-3-1.5-4.5-2.2-4-1.9-8-3.9-11.9-5.8l-4.4-2.1-16.8-8.2.1-.2,26.1-57.8,1.3.2v.2C148.85,320.36,152.25,332.46,155.75,344.76Zm-8.1-41.8,21.7.8-1.9,68.5c-5.6-18.8-11-38-16.2-56.6-1.2-4.1-2.3-8.3-3.5-12.4Zm-6.5,2.2c-5.4,12.1-10.8,24.1-16.1,35.7-3.2,7.1-6.4,14.2-9.7,21.5l-.2.5L98,330.06l43.5-25.7ZM99,338.76c3,5.8,6.1,11.5,9.1,17.3l5.5,10.4-.1.1-10.9,19.1h-.1l-.1-.6c-1.6-14.5-3.2-30.1-4-46.2l-.1-1.1Zm12.1,39.2,3.7-6.5,6,23.5-15.3-7.2C107.35,384.46,109.15,381.26,111.05,378Zm12.2,32.1a3.67,3.67,0,0,0,2.5.7l9.3-.4a3.4,3.4,0,0,0,1,.1h.1c-9.5,9.2-19.3,18.3-30,27.9l-1,.9,15.4-31.1Zm14,4.1.2-.2.2.2a2.75,2.75,0,0,1,.6,2.6c-1.4,9.1-13.6,65.8-14.8,69l-.2.5-.3-.4c-4.8-8.1-9.6-16-14.4-24.1-2.5-4.2-5-8.4-7.6-12.7l-.1-.2.1-.1C113.15,436.76,125.55,425.06,137.25,414.16Zm-.9-11.9-11.1-5.2c-2.5-9.6-4.5-17.8-6.4-25.7l-.1-.4.4.1c4,1.2,38.1,17.7,45.2,21.9Zm9.1,8c6,2.6,12,4.8,18.4,7.2,3.7,1.4,7.6,2.8,11.4,4.3l.2.1v.2c-.8,5.9-2.1,11.9-3.3,17.7-.7,3.1-1.3,6.3-1.9,9.5-1.7,8.9-3.6,17.9-5.7,26.7l-.2.9-.3-.9c-6.3-20.6-12.5-42-18.9-65.3l-.1-.5Zm29.4-18.4.1-4c8.1-24.5,17.6-53.3,27.8-82.7v-.3h.6l-.1.3c2.7,28.2,5.4,57.5,7.8,87.1v.3h-.3Zm.5-17.4,1.9-71.9,23.7-6.5-.1.4C200.25,300.66,181.45,357.56,175.35,374.46Zm58.8-79.7c.8,1.6,1.6,3.4,2.4,5.1v2.2c-10-3.2-18.7-6.3-26.7-9.1l-.5-.2,18.9-9.8.1.2C230.45,287,232.25,290.76,234.15,294.76Zm-3.4-14.1,6.2-11.3-.3,23.7Zm-5.7-.4c-4.5,2.7-9,5-13.3,7.2-2,1-4,2-6,3.1l-.2.1-.1-.3c-1.8-4.6-3.6-9.1-5.4-13.7-1.4-3.6-2.8-7.3-4.4-11.1l-.2-.6,30.1,15.1Zm-18.9,116,4.9.2-1.2,5.4c-.7,3.5-1.5,7.1-2.3,10.8l-28.8-16.8C188.15,395.76,197,396,206.15,396.26Zm1.7,183.9a64,64,0,0,1,1.5-9.1c.3-1.4.6-2.9.9-4.4v-.1h.1a7,7,0,0,1,4.3.1h.1v.1a20.19,20.19,0,0,1,1.1,8.8v.1l-.1.1-7.9,4.9Zm4-170.2c.4-2.2.9-4.3,1.3-6.3.6-2.6,1.1-5,1.6-7.5V396h.2l21.5-3.3.1.1Zm13.8,82.2-.2-.4.3-1.7c1.7-8.3,3.4-17,5.3-26l.1-.4,11.8,11.2Zm18.8-12.6v27.3h-.3c-2.3-.3-4.5-.5-6.7-.7-4.6-.5-9.4-.9-14.1-1.8h-.2v-.2a9.68,9.68,0,0,1,.8-4.1l.1-.1Zm-25.5,88v-.1h.1a7.15,7.15,0,0,1,2.9-.1,9.15,9.15,0,0,0,1.7.1h.4l-.1.3a7.1,7.1,0,0,1-2.5,3.3,12,12,0,0,0-1.2,1.1l-.3.2-.2-.3A6.44,6.44,0,0,1,219,567.56Zm3,8.7a8.89,8.89,0,0,1,2.6-3.3,10,10,0,0,0,1.1-1c.8-.8,1.7-1.6,2.6-2.5.4-.4.8-.7,1.2-1.1l.1-.1h.1l25.9,2.9.1.1c3.8,8.6,7.4,16.8,11.4,25.9l.3.6-.6-.3-44.8-21Zm66.3-293.7.1.2,14.6,24.4-13.3-.7c-.8-8-1.5-15.8-2.3-23.5v-.2Zm-.3-6.3,25.1,2.2v23.9l-.8,5.3-5.8-.3c-2.9-4.8-5.8-9.7-8.8-14.7-3.1-5.2-6.3-10.5-9.5-16Zm1.2,38.3,1.6.1,12.5,11h-.7c-10.2-.5-20.2-1.8-30.8-3.3Zm61.5,76.7-.6-3.5a3.81,3.81,0,0,0-.8-1.7l10.5-22,5.1,11.8q10.95,25.65,21.8,50.8l.1.2-.9.6-.1-.1Zm33,38.7-1,1.3-.2-.1-26.9-11.8-3.9-22.3Zm-98.6,81.3H285c-4.3-.2-8.5-.7-12.9-1.3-2.4-.3-5-.6-7.5-.9h-.3l.1-.3,16.2-43.3,33.4,19.1Zm26.2-17.9-.1.2c-3,7.6-6.1,15.4-9.2,23.4l-.1.4-.3-.3a5,5,0,0,1-1.1-2c-.2-.8-.4-1.4-1.1-1.7a18.57,18.57,0,0,0-3.4-.5,16,16,0,0,1-5.5-1.2l-.3-.2,20.1-18.7Zm-17.4-125.8.1.1,12.4,13.4-23.4-11Zm-15.7,0-8.8-31.6,22.2,28.6Zm67.1,39.9a1.69,1.69,0,0,1,.2.5l1.5,8.8-59.4-4.8,26.5-18.9,24.6-.5C341,397.46,343.05,402.36,345.25,407.46Zm-4.4-14.9h1.9l1.3,7.3C343,397.36,342,395,340.85,392.56Zm-25.8-7.4-1.6-.7-2.4-2.7c-2.6-2.8-5.3-5.7-7.8-8.7l-.1-.1.8-1.1.2.1,28.6,12.9Zm-9.6,4.3-20.8,14.9,10.9-19.6Zm40.2,31,.7.1-.6.4-64,38.5-.1-.3c-1-3-2.3-32.2-1.9-41.4.1,0,.1-.1.2-.1l3.1-2.2C294.25,415.66,333.15,418.76,345.65,420.46Zm-61.8,42.8.2-.2c2.3-2.5,47.7-30.2,62.3-37.9l.7-.4-.4.7-30.6,56.2-.2-.1Zm62.2-78.8-5.7.1-37.2-16.7.1-.2a2.19,2.19,0,0,1,.3-.5,1.37,1.37,0,0,1,.8-.5l.6-.1,2.8-.3,48.9-4.3-2.3,4.9C351.55,372.76,348.85,378.56,346.05,384.46Zm12.7-27.9-.1.3-44.2-26.8.5-.2c6.2-1.8,12.3-3.2,18.2-4.6,3.2-.8,6.2-1.5,9.2-2.2,5.4-1.4,10.7-2.6,16.4-4a35.89,35.89,0,0,1,3.5-.8l6.9.3C365.55,331.36,362.25,343.76,358.75,356.56Zm-5.7,1.3-.5.2a31.28,31.28,0,0,1-8.8,1.3c-1.6.1-3.3.2-4.9.4-2.9.4-6,.6-9,.8l-4.8.3c-2.3.2-4.7.4-7,.7l-6.4.6c-3.3.3-6.6.6-10.1.8l-4.1.3.2-.4c4.3-10.4,8.5-20.3,12.8-30.8l.1-.3.2.2ZM307,331.16c-4.7,11.1-8.6,20.5-12.8,30.4l-.2.4-27.2-35.1-.4-1.5c9,1,17.9,2.3,26.4,3.5,4.5.6,9.2,1.3,13.9,1.9l.4.1ZM264.05,317c-1.4-7.6-2.8-14.9-4.3-22.9l-.1-.6,22.7,15.4Zm-17.8,69.7,16.3-45.6,8.5,30.6a4,4,0,0,0,2.1,2.5l7.9,3.8-34.8,9.1Zm-.2-10.3-1.3-63.6a179.92,179.92,0,0,1,13.6,13.2l2.6,9.3Zm1.8,14.3c8.1-2.4,16.1-4.5,23.8-6.5,5-1.3,9.8-2.6,14.5-3.9l6.1,2.9-14.3,26-.8.6-6.2-2.9-23.6-16Zm27.9,29.8c.7,7.4.9,14.5,1.1,21.5.2,6.4.4,12.9.9,19.4v.2l-.2.1-28.7,11,.3-.6,26.1-51.6Zm.6,45.5-.2.5c-5.4,14.4-10.5,28-15.7,42l-.1.2-12.1-1.5V507c-.2-6.3-.4-12.5-.5-18.8l-.3-11.2.2-.1Zm-16.6,106.2-.2-.4h.4c1.9.2,3.7.4,5.4.5,4.7.4,9.1.9,13.8,1.7h.4l-.8,2c-2.6,6.7-5.1,12.9-7.8,20.1l-.2.6-.2-.5C266.55,587.46,263.05,579.46,259.75,572.16Zm13.3,32.4v-.4l.4.2,41.3,17.3-.1.2-34.8,58.9-.1-.8c-1.1-12.3-2.1-24.5-3.2-36.5C275.35,630.56,274.25,617.66,273.05,604.56Zm3.2-2.8.3-.3c2.2-2.1,44.9-23.7,52.5-26.5l.5-.2-.1.5c-3.3,10.8-6.6,21.5-9.9,32.2l-3.4,11Zm45.4,10.7c4-12.9,7.7-25,11.7-37.5l.1-.4,13.9,16.9-.2.2-25.9,23.9h-.5Zm9.7-43.1-.1.1c-4.4,2.8-44.2,22.5-48,23.4l-.9.2,60.9-57.7v.6C343.15,539.06,337.45,555.26,331.35,569.36Zm-54.1,22.2-.6.4,6.8-17.2h.2a29.51,29.51,0,0,1,8.4.6c2-.8,2.6-2.5,3.2-4.3l.1-.2a99,99,0,0,0,4.7-24.7c.1-1.3.2-2.6.2-3.8.2-3.6.4-7.3.7-10.9a12.26,12.26,0,0,1,.8-3.3c5.1-13,10.3-26.1,15.6-39.7l.2-.4.3.4c10.5,13.8,19.9,26.2,28.6,38l.1.1-.1.1C344.35,529.46,283.35,587.76,277.25,591.56Zm42.5-106.8.2-.1c12.9-8.1,25.9-16.2,38.6-24,9.2-5.7,18.8-11.6,28.1-17.4l.2-.1.1.1.4.4a.64.64,0,0,1,0,.6l-38.5,79.3Zm3.1-6.4.4-.8c9-17.9,18.7-35.8,28.2-53.1h.2a1.7,1.7,0,0,0,.7-.1,4.13,4.13,0,0,0,2.7-1.9l33.9,14.9-.4.2Zm43.8-107.2-.1-.2.9-.6.1.1,51.8,54.2-.3.1c-5.3,2.4-10.6,4.5-15.7,6.5l-9,3.6-.2.1-.1-.2C384.75,413.26,375.75,392.26,366.65,371.16Zm45.3,39.4c-3.8-2.5-44.2-44.6-49.2-50.8l-.2-.2.2-.2,14.4-12.5.2.3,35.5,63.9Zm-36.4-67.2a79.77,79.77,0,0,1-7.4,6.7l-4.1,3.5-.6.5.2-.7c1.4-6.4,3-12.1,4.7-18.3,1-3.5,2-7.2,3-11l.2-.9.3.9a109.53,109.53,0,0,1,2.4,11.3c.4,2.7.9,5.2,1.5,7.7Zm-42-53.9c2,6.5,4,13,6.1,19.6l-19.3-1,6.2-41.4C329,274.46,331.25,282,333.55,289.46Zm16.4,28.1c-13,3.4-37,9.1-40,9.5h-.1l-.1-.1L296,314.86Zm-34.4-31.5v-5.5a14,14,0,0,1,1.8-6.7Zm-.4-15.3c-.3.8-.7,1.7-1,2.6l-.1.3-.3-.3-25.4-24.1,30.1,13C317.45,265.06,316.35,267.86,315.15,270.76Zm-4.7,3-.4.1a16.53,16.53,0,0,1-2.9.2,138.42,138.42,0,0,1-20.6-1.8h-.2v-.2c-.4-3.7-.9-7.5-1.3-11.3-.4-3.5-.8-7-1.2-10.6v-.1l1-.8.2.2ZM285.35,306v.5l-24.7-16.7.3-.2c5-3,10.1-5.8,14.9-8.5l6-3.3.3-.1.1.3C283.45,280.66,285.15,296.46,285.35,306Zm-27.1-19.2-.1-.3c-1.8-6.4-3.6-12.4-5.5-19.1l-.1-.4,27.6,7.6Zm23.9-15.9h-.4c-3.5,0-16.4-3.3-27.6-7l-.5-.2,26-16.5.6,5.7c.7,6.1,1.3,11.9,1.9,17.7Zm-31.6-8.5-.1-.2c-1.5-1.6-2.7-3-4-4.4l23.3-7.5Zm-2.5,2.8v.2c-1.2,5-2.2,9.6-3.3,13.9l.2-17.4Zm1.2,6.6h1l.1.2,4.9,17-10.6,10.1.1-8.2Zm6.6,21.4.1.4c3.5,16.1,4.7,21.8,4.6,24.9l-.7.3a4.24,4.24,0,0,0-1.8,1.7l-13.5-13.7v-2.9Zm16.9,123.9-.1.5c-.5,2.9-16.6,35.6-27,54.6l-.2.3-.2-.2L232,459.36v-.1c.4-2.2.9-4.5,1.3-6.7,1.1-5.8,2.3-11.8,3.4-17.8v-.1l.1-.1ZM215,392.26V392c-1.1-12.2-2.1-24.3-3.1-36.4-1.4-15.7-2.7-31.3-4-46.9v-.2l1-.3.1.2c9.7,24.2,19.4,48.4,29.3,73l.2,7.2Zm18.4-32.1c-8.2-20.5-16.7-41.8-25.4-63.2l-.2-.5.5.2c6.8,2.1,13.3,4.3,19.6,6.5,2.8,1,5.8,2,8.7,3l1.4,65.4Zm3.7-98.5c-2.8,5.2-5.8,10.6-8.8,16.4l-.1.2-.2-.1-31-15.5,30.7-3.9,9.5.4Zm-32.5-2.6c-3.4.4-7,.8-10.5,1.3h-.2l-.1-.2c-.2-.9-.4-1.6-.6-2.4,0-.1,0-.1-.1-.2l.2-.1,18,.7C209.15,258.46,206.85,258.76,204.55,259.06Zm-2.4,32.6-.2.1c-5.5,1.8-10.9,3.3-16.6,4.8-2.9.8-5.8,1.6-8.8,2.4l-.6-1.6c2.5-5,5-9.9,7.4-14.7,2.7-5.4,5.4-10.8,8.2-16.3l.2-.5Zm-12.6-30.3v.1h-.1l-6.7,2,7-4A5.84,5.84,0,0,1,189.55,261.36Zm-1.3,3.5-.1.4c-.3,2.4-8.8,19.9-13.6,28.4l-7.5-21.2,4.2-2.4Zm-20,34.6.1.2H168c-1.1.1-2.2.1-3.3.1-2.8,0-5.5-.2-8.1-.4-3-.2-6-.4-9.1-.3h-.2v-.2c-.2-2.2-.2-4.3-.2-6.6a85.14,85.14,0,0,0-.7-10.9l-.1-.6Zm-20.5-20.7.3-.2a61.48,61.48,0,0,1,8.4-3.4,15.55,15.55,0,0,1,2.3-.8h.5l7.1,20.1Zm1.7-4.2c-1.4.5-2.9,1-4.4,1.7l-.1.1-4.6-3.6,11.4,1A15.55,15.55,0,0,0,149.45,274.56Zm-8.7,2.7-21.6,5.8,14.7-10.9h.5Zm1.6,2.2v.3c0,2.5.2,5.1.4,7.5a96,96,0,0,1,.3,10.8v.3l-.3-.1-29.9-9.7-.1-.7,1-.7Zm-25.2,14.1c7.5,2.4,15.3,4.9,23.1,7.6l.5.2-.5.3-42.4,25,.1-.6c1.1-4.1,2.1-8.1,3.1-12,1.5-6,3-11.7,4.5-17.5l4-5.4C112.05,292,114.55,292.76,117.15,293.56Zm-18.6,19.1L95,326.76v.2h-.5l-.6-14.3,7.3-10C100.25,306,99.45,309.26,98.55,312.66Zm-7.3,104.8,23.6-13.4,2.5,1.8c-3.1,8-17.2,35.6-18.6,37.1l-.3.3-.1-.4c-.8-2.4-1.7-4.7-2.5-7-1.4-3.8-2.8-7.8-4.2-11.7Zm.9,18.1c1.3,3.8,2.7,7.6,4.1,11.3a7.89,7.89,0,0,1,.6,3.4l-.6,5c-.7,6-1.4,12.1-2.2,18.2Zm24.7,56.9-21.5-2.6-.1-.3.9-8.1c1-8.8,2-17.5,3-26.2v-.2l1.2-.3.1.2,21.3,35.6-.2.1a7.12,7.12,0,0,1-4.5,1.8Zm2.1,63.3,7.1.7v.2a42.67,42.67,0,0,1,1,12.3c0,2,0,4,.1,5.9Zm7.8-66.1.1-.3c2.5-11.9,4.9-23.8,7.3-35.6,2.5-12.1,5-24.1,7.4-36.2v-.2h1.2l.1.2c6.5,22.5,13,45,19.7,67.8l.1.3Zm8.8,104.6c0-.1-.1-.2-.1-.3l-.8-1.8.6-.7,5,2.7v.1a3.82,3.82,0,0,1,0,3.3c-.2.7-.3,1.5-.7,3l-.1.6-.3-.6C138,598.46,136.75,596.46,135.55,594.26Zm2,9.8-1.2.9-.9-1.2.1-3.3Zm-5.7-18.4v-.1c-.3-4.2-.5-8.3-.8-12.6-.3-5.1-.7-10.3-1-15.7V557h.3l17.3,2v.2a49.52,49.52,0,0,1-1.7,11c-.4,1.5-.7,3.1-1,4.7a114.23,114.23,0,0,1-3.4,15.4l-.1.3-.3-.1Zm12,81.8c.2-4.6.3-9.4.4-13.9s.2-9.3.4-13.9a11.3,11.3,0,0,1,.8-4.8l.1-.3.3.1a64.32,64.32,0,0,0,15.9,6.3h.2v.2a21.37,21.37,0,0,1-.3,6.2c-1.3,10.6-2.7,21.3-4,31.8-.6,4.9-1.3,9.8-1.9,14.7-1,7.2-1.9,14.7-2.9,22.1-.7,5.3-1.3,10.8-2,16-.6,4.7-1.1,9.4-1.7,14.1-.7,5.6-1.4,11.2-2.2,16.8-.6,4.5-1.2,8.9-1.7,13.3-.9,7.4-1.8,14.8-2.8,22.1l-1.3,10.8c-.3,2.3-.6,4.7-.9,7.4l-.1,1.1-.3-1.1a11.58,11.58,0,0,1-.5-4.9c.5-14.8,1-29.9,1.5-44.7.1-2.4.1-4.9.1-7.3,0-2.2.1-4.5.1-6.7.2-6.7.4-13.5.6-20.2.1-4.5.3-9,.4-13.5.2-5.4.3-10.8.5-16.3C143,691.36,143.35,679.26,143.85,667.46Zm17.8-176.1c-.4,1.9-.7,3.7-1.1,5.7v.2h-.2l-29.5-3.3v-1l31.2-3.6Zm-26.9,362.5h-9.1l6.4-163.2c0,3,.1,5.9.1,8.9.1,8.2.1,16.6.4,24.9.3,9.3.4,18.8.5,28,.1,9,.2,18.2.4,27.3.3,10.8.4,21.8.5,32.4.1,6,.1,12.2.2,18.2.1,5,.2,10.2.4,15.1.1,2.7.1,5.4.2,8.1Zm1.8-62.3c-.5-5.3-.5-10.6-.6-15.8,0-2.9-.1-6-.2-9-.4-10.1-.4-20.4-.5-30.3-.1-8.3-.2-16.9-.4-25.4s-.3-17-.4-25.3c-.1-8.7-.2-17.7-.4-26.6l-.3-12.9,1.5-39.3a7.35,7.35,0,0,1,2.1,2.2v.1a18.49,18.49,0,0,1-1.1,7.7c-1.3,4.7-.2,8.8,3.5,12.9a20,20,0,0,0,2.2,1.9l.1.1v.1c-1.7,53.3-3.4,106.4-5.1,159.6Zm2.3,62.3c8.8-70.3,17.8-141.6,26.8-211.9v-.3l.3.1c1.9.4,1.9,1.5,1.9,2.3.1,1.4.1,2.9.2,4.4.1,2.9.3,5.8.4,8.7.2,4.8.3,9.6.4,14.5.2,7.7.4,15.7.7,23.5.5,12.9.9,26,1.3,38.7.1,4.5.3,9.1.4,13.6.2,7.1.5,14.2.7,21.3l.9,27.3c.2,5.7.4,11.5.6,17.2.4,11.4.8,23.1,1.1,34.7,0,1.1.1,2.1.2,3.2s.2,2,.2,3Zm40,.2c0-.8-.1-1.7-.1-2.5-.2-4.3-.4-8.3-.5-12.4-.2-7.6-.5-15.2-.7-22.8-.4-12.4-.7-25.3-1.2-37.9-.1-3.1-.2-6.3-.4-9.4-.5-12.4-1-25.2-1.3-37.8-.5-18.9-.9-36-1.8-53.6-.2-4.2-.3-8.5-.4-12.6-.1-6.1-.2-12.4-.8-18.5a6.57,6.57,0,0,1,.2-3.4v-.1h.1c1-.9,2-.6,3.5-.2h.1v.1l52.1,211.3Zm48.4-19-.3.9-.2-.9c-13.9-56.6-30.5-123.7-47.5-191.9l-.1-.2.3-.1a15.68,15.68,0,0,1,4.7-1.3A23.42,23.42,0,0,0,193,638a10.44,10.44,0,0,0,4.5-6.7c1.5-7.3,3-14.8,4.4-22,1.5-7.5,3-15.2,4.6-22.8v-.1l.1-.1a74.81,74.81,0,0,1,9.6-6.2l.3-.1.1.3a5.66,5.66,0,0,1,.3,1.8c.3,6.2.6,12.5.8,18.6.3,6.8.5,13.6.8,20.5.4,9.2.7,18.4,1.1,27.6l.4,9.9c.7,16.1,1.4,32.8,2.2,49.1.6,12.2,1.2,25.2,1.7,38.3.5,15,1.2,30.3,1.9,45.1.2,4.6.4,9.3.6,13.9.2,4.9.5,9.9.7,14.7.2,3.5.4,7.1.5,10.6A9.41,9.41,0,0,1,227.25,835.06Zm5.2-1-.9-.2-.2-1.3c-.2-1.7-.4-3.4-.5-5.1-.2-5.3-.4-10.6-.6-15.8-.2-4.4-.3-8.9-.5-13.3-.2-4.8-.4-9.5-.7-14.3-.3-5.4-.5-11-.8-16.5-.2-4.9-.4-9.7-.5-14.6-.2-6-.4-12.2-.7-18.3-.4-8-.7-16-1.1-24s-.8-16-1.1-24c-.2-4.8-.4-9.7-.5-14.4-.2-5.1-.4-10.4-.6-15.6l-.8-16.4c-.5-10.8-1-21.7-1.5-32.5-.4-8.2-.7-16.5-1-24.5a4.76,4.76,0,0,1,.5-3.3l.1-.2.2.1,47.7,22.5v.2q-18.15,115.65-36.4,231.3Zm1.2,20.2,43.2-154.9a16.67,16.67,0,0,1,.8-2l.4-.7.1.8c6.3,45.9,12.9,94.4,21.4,157.1Zm67.6-14.6-.3-2.4q-10.35-75.15-20.6-150.4v-.2l33.9-57.4-.1,1c-3.6,68.7-7.9,138.4-12.8,206.9Zm3.1,14.9c4.2-67.2,8.3-133.1,13-199.5v-.2h.5v.2c4.1,66,8.3,133.2,12.5,199.6Zm40.6.2h-10.4c.1-5.3.5-10.5.9-15.6.3-3.6.6-7.2.8-10.8.3-6,.8-12,1.3-17.9.3-3.8.6-7.7.9-11.6.3-4.9.7-9.9,1-14.7s.6-9.8,1-14.7c.4-5.2.8-10.5,1.2-15.6.4-4.6.7-9.2,1-13.8.4-5.5.8-11.1,1.1-16.5l.9-12.9c.5-7.3,1.1-15.5,1.9-23.8Zm2-218.1q-6.9,97.5-13.8,194.6l-.1,1.6-.4-1.5a49.11,49.11,0,0,1-1.1-9.2c-.1-1.5-.2-3.1-.3-4.6-.4-4.3-.6-8.7-.8-13-.1-2.4-.2-4.8-.4-7.2-.4-7.2-.9-14.5-1.4-21.6-.3-3.6-.5-7.2-.7-10.8-.2-3.8-.5-7.6-.7-11.3-.2-2.5-.3-5.1-.5-7.6-.4-6-.7-11.9-1.1-17.9s-.8-11.9-1.1-17.9c-.2-3.3-.4-6.5-.6-9.8-.2-3.6-.4-7.2-.6-10.9-.4-7.3-.9-14.7-1.4-21.9-.3-3.6-.5-7.3-.7-10.9-.4-6-.8-12.3-1.1-18.5,0-.8-.1-1.6-.1-2.4-.1-2.1-.2-4.3-.4-6.4a52.29,52.29,0,0,1,0-5.6v-.3l.3.1,27.2,8.8Zm.8-39.3c-.1,10.6-.2,20.6-.9,31v.3l-26.2-8.6,27.1-25.1Zm3.1,17.4c-.2-7.5,0-15.1.5-22.6V592l.1-.1,7.7-3.3Zm10-30.9a1.42,1.42,0,0,0-.2.6l-.3.9-5.8,2.4-.8-.7.1-.2,29.1-49.3,1.2.6h.1Zm29.8-65.2-41.1,69.8-.2-.3c-4.5-5.4-9.2-11.1-14-17.1l-.1-.2.2-.2,55.2-53.5-.2.7c.1,0,.1.1.2.2A.64.64,0,0,1,390.65,518.66Zm.3-6-52.5,50.9V563a.22.22,0,0,1-.2-.2,1.06,1.06,0,0,1-.2-.5v-.1c2.7-7.1,5.3-14.3,8-21.3l4.5-12h.1c5.7-3,36-15.6,40.2-16.6l.9-.2Zm7-7.4h-.3l-43.3,18.3-.1-.3a4.1,4.1,0,0,1,.7-3.7,4.35,4.35,0,0,0,.4-.7c10.9-22.5,21.9-45.2,32.8-67.4a26.36,26.36,0,0,1,3.6-6.6l.4-.5.1.6,2.2,22.9c1.2,12.4,2.3,24.7,3.5,37.2Zm3.1-12c-1.3-2.8-5.7-46.5-5.6-55v-.2l24.4-9.9-.1.5c-1.2,5.2-2.6,10.1-4,14.8-.6,2.2-1.3,4.5-1.9,6.7-1.3,4.7-2.7,9.5-4,14.2-.7,2.4-1.4,4.9-2.1,7.3l-6.3,22.1Zm21.8-30.6-7.8,15.3c2.3-5.1,6-13.2,9.6-20.6Zm8.1-24.6c-1.4,3-2.8,6-4.2,8.9-2.6,5.5-5.2,11-7.9,16.5-2.5,5.2-5,10.5-7.4,15.6-1.1,2.3-2.1,4.6-3.2,6.9l-.1.2-1-.3.1-.2c5.5-19.2,11.1-39.2,16.8-59.2v-.1l.1-.1,13.7-9.2Zm9.4-28.5-.7,2-16.6,11.2-.1-.2c-5.8-10.5-11.6-20.9-17.4-31.3-6.3-11.5-12.9-23.3-19.4-34.9l-.1-.2.8-.7.2.2,49.9,48.6Zm-16-25.5,4.1,6.5-.4.4-.2-.2-48.4-47v-.2l-.3-1.2c-.2-.9-.4-1.7-.6-2.6-1-5.5-2.1-11.9-2.7-18.4l1.7,1.1ZM434,225c-.1,1.2-.3,2.4-.4,3.6-.7,6.3-2.6,12.4-4.4,18.2-1,3.4-2.1,6.8-2.9,10.3-1.5,3-2.9,6.1-4.3,9.1-3.4,7.3-6.9,14.9-12,21.5l-.1.1-17.5-28.7a3.84,3.84,0,0,0-1.1-1.1l-26.1-19a3.7,3.7,0,0,0-2.7-.7l-29.2,2.5a4.16,4.16,0,0,0-3,1.8l-8.4,12.6-38.4-16.6a3.87,3.87,0,0,0-2.8-.1l-40.1,12.9-47.9-1.9a5,5,0,0,0-2.1.5l-29.2,16.6-28.4-2.4a3.77,3.77,0,0,0-2.7.8l-24.5,18.2a3,3,0,0,0-.8.8l-14.7,20.1c-2.2-3.4-4.5-6.7-6.7-10.1-1.4-2.2-2.9-4.4-4.3-6.5a32.3,32.3,0,0,1-2.9-5.9c-.6-1.3-1.1-2.7-1.8-4-4.9-9.1-7.1-19.2-9.2-29-.3-1.3-.6-2.7-.9-4a43.62,43.62,0,0,1-.8-8.1c-.1-1.6-.1-3.3-.3-5-1.1-10.6.2-21,1.8-30.7a75.35,75.35,0,0,1,3-11.3c.5-1.6,1-3.3,1.5-5a105,105,0,0,1,5.7-15,154.46,154.46,0,0,1,19.3-32.2c2.1-2.7,4.5-5.2,6.8-7.7,1.4-1.5,2.9-3,4.2-4.6a150.69,150.69,0,0,1,30.2-25.6,219.45,219.45,0,0,1,39.5-20.9c10.1-4.1,20.8-6.9,31.1-9.7l5.6-1.5a74.56,74.56,0,0,1,11.5-1.9c2.4-.3,4.9-.5,7.3-1,11-1.9,22.2-1.7,33-1.6,1.5,0,3,0,4.5.1a94,94,0,0,1,11.9,1.1c2.4.3,4.9.6,7.4.8,9.9.8,19.7,3.5,29.1,6.1,2,.5,3.9,1.1,5.9,1.6a84.66,84.66,0,0,1,12.2,4.5c2.4,1,4.9,2.1,7.5,3,6.5,2.4,12.4,5.9,18.1,9.3,1.3.8,2.6,1.5,3.9,2.3a152.31,152.31,0,0,1,33.4,26.9c7.8,8.2,14,17.7,20,26.9l1.5,2.3a76,76,0,0,1,3.7,7.6,134.61,134.61,0,0,1,9.5,28.3,93.93,93.93,0,0,1,2.1,17.3c.1,1.9.3,3.8.4,5.7C435.35,212.86,434.65,219,434,225Z" style="fill:#fff"/></g></g></svg>