<?xml version="1.0" encoding="UTF-8"?>
<svg width="70px" height="132px" viewBox="0 0 70 132" version="1.1" xmlns="http://www.w3.org/2000/svg" xmlns:xlink="http://www.w3.org/1999/xlink">
    <!-- Generator: Sketch 63.1 (92452) - https://sketch.com -->
    <title>mobile</title>
    <desc>Created with Sketch.</desc>
    <g id="mobile" stroke="none" stroke-width="1" fill="none" fill-rule="evenodd">
        <g fill="#FFFFFF">
            <rect id="Rectangle-Copy" stroke="#FFFFFF" stroke-width="2" fill-opacity="0.342329545" transform="translate(35.500000, 66.000000) scale(-1, 1) translate(-35.500000, -66.000000) " x="3" y="1" width="65" height="130" rx="8"></rect>
            <path d="M25,2 L47,2 L47,3 C47,4.65685425 45.6568542,6 44,6 L28,6 C26.3431458,6 25,4.65685425 25,3 L25,2 L25,2 Z" id="Rectangle"></path>
            <rect id="Rectangle-Copy-4" x="22" y="124" width="27" height="1" rx="0.5"></rect>
            <rect id="Rectangle-Copy-5" transform="translate(1.500000, 16.500000) rotate(-90.000000) translate(-1.500000, -16.500000) " x="-1.5" y="15.5" width="6" height="2" rx="1"></rect>
            <rect id="Rectangle-Copy-6" transform="translate(1.500000, 28.500000) rotate(-90.000000) translate(-1.500000, -28.500000) " x="-4" y="27.5" width="11" height="2" rx="1"></rect>
            <rect id="Rectangle-Copy-7" transform="translate(1.500000, 43.000000) rotate(-90.000000) translate(-1.500000, -43.000000) " x="-4" y="42" width="11" height="2" rx="1"></rect>
            <rect id="Rectangle-Copy-8" transform="translate(69.500000, 36.000000) rotate(-90.000000) translate(-69.500000, -36.000000) " x="63" y="35" width="13" height="2" rx="1"></rect>
        </g>
    </g>
</svg>